<?xml version="1.0" standalone="no"?>
<!DOCTYPE svg PUBLIC "-//W3C//DTD SVG 20010904//EN"
 "http://www.w3.org/TR/2001/REC-SVG-20010904/DTD/svg10.dtd">
<svg version="1.0" xmlns="http://www.w3.org/2000/svg"
 width="657.000000pt" height="657.000000pt" viewBox="0 0 657.000000 657.000000"
 preserveAspectRatio="xMidYMid meet">
<metadata>
Created by potrace 1.11, written by Peter Selinger 2001-2013
</metadata>
<g transform="translate(0.000000,657.000000) scale(0.100000,-0.100000)"
fill="#000000" stroke="none">
<path d="M0 3285 l0 -3285 3285 0 3285 0 0 3285 0 3285 -3285 0 -3285 0 0
-3285z m3431 345 c126 -228 229 -423 229 -432 0 -12 -13 -21 -37 -27 -21 -6
-128 -35 -238 -65 l-199 -55 -221 55 c-121 30 -237 59 -257 65 -23 6 -38 16
-38 25 0 9 113 204 252 435 169 283 256 419 266 417 8 -2 118 -190 243 -418z
m-787 -877 c-5 -40 -4 -46 7 -35 17 15 51 16 67 0 30 -30 0 -132 -47 -157 -19
-10 -101 -11 -101 -1 0 3 9 45 20 94 23 105 25 132 8 139 -7 3 2 6 20 6 l33 1
-7 -47z m-419 -3 c-5 -16 -2 -20 14 -20 28 0 27 -18 -1 -22 -18 -2 -25 -13
-35 -58 -15 -65 -12 -77 19 -82 22 -4 22 -5 -5 -12 -21 -6 -33 -4 -44 6 -12
13 -13 24 -2 79 10 48 10 64 0 67 -7 2 -1 15 16 32 34 33 46 37 38 10z m1061
-20 c8 0 14 -4 14 -10 0 -5 -9 -10 -19 -10 -15 0 -22 -11 -30 -50 -16 -76 -15
-90 11 -90 16 0 19 -3 11 -11 -6 -6 -21 -9 -34 -7 -29 4 -36 40 -19 106 8 35
8 47 -1 53 -9 5 -4 15 17 32 27 24 29 24 32 6 2 -10 10 -19 18 -19z m804 -1
c0 -5 -9 -9 -20 -9 -15 0 -20 -7 -20 -26 0 -41 -18 -63 -61 -74 -47 -13 -47
-33 1 -40 39 -6 55 -27 46 -63 -12 -49 -122 -59 -150 -13 -9 14 -6 22 15 40
14 12 23 28 21 35 -2 6 3 20 13 31 11 12 13 20 6 25 -18 10 -13 50 9 73 14 15
33 22 58 22 20 0 44 4 52 9 15 10 30 6 30 -10z m-1652 -31 c27 -58 -25 -148
-86 -148 -64 0 -85 84 -36 147 23 30 30 34 67 31 34 -2 44 -8 55 -30z m470 4
c5 -31 -23 -60 -64 -68 -28 -5 -34 -11 -34 -30 0 -30 23 -40 56 -26 15 8 24 8
24 2 0 -17 -47 -33 -74 -26 -54 13 -58 88 -9 146 21 26 32 31 62 28 29 -2 37
-8 39 -26z m247 18 c4 -6 4 -18 1 -26 -5 -13 -9 -12 -25 7 -11 14 -24 20 -34
16 -27 -10 -20 -45 13 -62 41 -21 51 -62 20 -87 -14 -12 -35 -18 -53 -16 -31
3 -57 31 -43 45 4 4 12 0 17 -10 13 -22 58 -22 66 0 4 11 -5 25 -30 46 -38 30
-47 63 -25 85 15 15 84 16 93 2z m235 -7 c0 -15 1 -15 18 0 26 24 62 22 62 -3
0 -22 -26 -28 -33 -7 -11 32 -54 -43 -71 -125 -4 -16 -13 -28 -22 -28 -10 0
-14 6 -10 18 2 9 10 44 16 76 11 54 10 61 -6 73 -16 12 -15 13 14 13 23 0 32
-5 32 -17z m256 -8 c50 -76 -62 -198 -128 -138 -34 30 -15 126 29 152 34 20
81 13 99 -14z m114 8 c0 -15 1 -15 18 0 25 23 69 22 76 0 3 -10 1 -36 -4 -58
-15 -61 -13 -85 8 -85 16 -1 16 -1 -1 -11 -10 -6 -25 -8 -34 -5 -13 5 -14 18
-8 81 6 63 4 75 -8 75 -25 0 -55 -47 -67 -106 -7 -35 -16 -54 -26 -54 -17 0
-17 -6 1 81 14 67 14 72 -2 85 -16 12 -15 13 15 14 23 0 32 -4 32 -17z m479 3
c25 -30 -26 -86 -79 -86 -24 0 -27 -32 -5 -50 12 -10 21 -10 40 -2 27 12 33 4
13 -16 -18 -18 -63 -15 -81 6 -48 53 -3 162 68 162 18 0 38 -6 44 -14z m101
-3 c0 -15 1 -15 18 0 23 21 62 22 62 3 0 -21 -21 -31 -31 -15 -16 23 -56 -33
-69 -96 -7 -36 -16 -55 -26 -55 -17 0 -17 -6 1 81 14 67 14 72 -2 85 -16 12
-15 13 15 14 23 0 32 -4 32 -17z"/>
<path d="M3158 3850 c-9 -18 -148 -490 -148 -502 0 -14 150 -10 155 5 8 21 1
513 -7 497z"/>
<path d="M3250 3858 c0 -13 118 -507 123 -516 7 -11 206 -96 212 -90 4 3 -316
592 -329 605 -3 4 -6 4 -6 1z"/>
<path d="M2925 3555 c-98 -163 -175 -298 -172 -301 6 -6 188 74 203 89 13 13
156 498 150 504 -2 3 -84 -129 -181 -292z"/>
<path d="M3210 3577 l0 -237 55 0 c47 0 55 3 55 18 0 22 -99 444 -106 451 -2
2 -4 -102 -4 -232z"/>
<path d="M2867 3253 c-59 -25 -105 -48 -103 -51 9 -8 390 -101 398 -96 4 3 8
48 8 100 l0 94 -97 0 c-94 -1 -103 -3 -206 -47z"/>
<path d="M3210 3199 c0 -79 3 -100 13 -96 7 3 85 24 173 48 87 23 163 45 167
49 4 4 -42 28 -102 53 -96 41 -119 47 -181 47 l-70 0 0 -101z"/>
<path d="M2647 2692 c-18 -20 -37 -74 -37 -104 0 -13 8 -18 26 -18 20 0 29 9
45 45 23 51 22 88 -2 93 -8 1 -23 -6 -32 -16z"/>
<path d="M3977 2702 c-19 -20 -23 -57 -7 -67 5 -3 19 -1 30 5 16 9 20 19 18
42 -4 38 -19 45 -41 20z"/>
<path d="M3926 2547 c-24 -18 -17 -51 13 -55 43 -7 71 6 71 33 0 14 -6 25 -12
25 -7 0 -22 3 -33 6 -11 3 -28 -1 -39 -9z"/>
<path d="M2351 2701 c-21 -21 -35 -75 -29 -108 2 -11 13 -19 30 -21 21 -3 30
3 42 27 19 36 21 92 4 109 -16 16 -25 15 -47 -7z"/>
<path d="M2831 2694 c-26 -33 -27 -44 -2 -44 25 0 53 28 49 48 -5 26 -25 24
-47 -4z"/>
<path d="M3561 2701 c-23 -23 -36 -79 -26 -111 9 -30 55 -24 72 10 19 37 17
106 -3 114 -22 8 -22 8 -43 -13z"/>
<path d="M4160 2688 c-16 -27 -17 -34 -6 -36 26 -6 57 18 54 40 -5 34 -26 32
-48 -4z"/>
</g>
</svg>
